<svg width="300" height="300" viewBox="0 0 300 300" fill="none" xmlns="http://www.w3.org/2000/svg">
<rect width="300" height="300" fill="#1E1E1E"/>
<rect width="300" height="300" fill="white"/>
<path d="M70.7588 259.005C71.029 256.775 71.8091 255.073 73.0992 253.898C74.3892 252.723 76.1006 252.264 78.2335 252.523C79.4615 252.672 80.4789 252.988 81.2858 253.473C82.0928 253.958 82.6269 254.583 82.8882 255.349C83.0629 255.856 82.9849 256.174 82.6543 256.305L81.4158 256.784C80.982 256.955 80.6608 256.791 80.4522 256.294C80.3202 255.976 80.0392 255.67 79.6093 255.375C79.1859 255.081 78.6672 254.897 78.0532 254.823C76.6959 254.658 75.6937 254.973 75.0467 255.767C74.4004 256.554 73.9793 257.755 73.7835 259.371C73.5877 260.987 73.7092 262.258 74.1479 263.183C74.5875 264.102 75.4858 264.644 76.8431 264.808C77.5734 264.897 78.2074 264.806 78.745 264.537C79.2891 264.268 79.6761 263.997 79.906 263.723C80.2814 263.277 80.6324 263.195 80.9589 263.477L82.0283 264.394C82.3191 264.645 82.3123 264.972 82.0077 265.375C81.5546 265.976 80.8445 266.45 79.8776 266.799C78.9107 267.147 77.7745 267.242 76.4689 267.084C74.3684 266.83 72.8224 265.977 71.831 264.525C70.846 263.075 70.4886 261.234 70.7588 259.005ZM85.0596 267.791C84.6072 267.736 84.4103 267.466 84.4691 266.981L85.9775 254.533C86.0362 254.049 86.2918 253.834 86.7442 253.889L88.2178 254.067C88.6703 254.122 88.8671 254.392 88.8084 254.877L88.2339 259.617L93.4496 260.249L94.0241 255.509C94.0829 255.024 94.3384 254.809 94.7908 254.864L96.2644 255.042C96.7169 255.097 96.9137 255.367 96.855 255.852L95.3465 268.3C95.2878 268.784 95.0322 268.999 94.5798 268.944L93.1062 268.766C92.6538 268.711 92.4569 268.441 92.5157 267.957L93.1583 262.654L87.9425 262.022L87.2999 267.325C87.2412 267.809 86.9856 268.024 86.5332 267.969L85.0596 267.791ZM97.9244 269.35C97.4591 269.293 97.3331 269.062 97.5463 268.655L103.809 256.753C104.073 256.254 104.408 256.029 104.815 256.078L106.172 256.243C106.58 256.292 106.852 256.591 106.989 257.139L110.227 270.191C110.337 270.638 110.159 270.832 109.694 270.776L108.152 270.589C107.726 270.538 107.456 270.279 107.342 269.812L106.669 267.085L101.744 266.488L100.439 268.976C100.217 269.401 99.8925 269.588 99.4659 269.537L97.9244 269.35ZM102.937 264.193L106.058 264.571L105.24 261.344C105.141 260.964 105.086 260.692 105.073 260.527C105.067 260.355 105.068 260.106 105.075 259.779L105.036 259.774C104.965 260.094 104.903 260.335 104.85 260.5C104.805 260.658 104.689 260.91 104.503 261.254L102.937 264.193ZM112.554 271.123C112.101 271.068 111.904 270.798 111.963 270.313L113.472 257.865C113.53 257.381 113.786 257.166 114.238 257.22L115.673 257.394C116.229 257.462 116.622 257.739 116.851 258.226L120.833 266.765L120.901 266.773C120.916 266.381 120.947 265.991 120.994 265.604L121.809 258.876C121.868 258.391 122.123 258.176 122.576 258.231L124.049 258.409C124.502 258.464 124.699 258.734 124.64 259.219L123.132 271.667C123.073 272.151 122.817 272.366 122.365 272.311L121.027 272.149C120.471 272.082 120.078 271.805 119.849 271.318L115.787 262.622L115.72 262.614C115.705 263.005 115.674 263.395 115.627 263.783L114.794 270.656C114.735 271.141 114.48 271.356 114.027 271.301L112.554 271.123ZM126.271 265.732C126.541 263.502 127.337 261.801 128.659 260.63C129.982 259.459 131.709 259.003 133.842 259.262C135.128 259.417 136.117 259.704 136.807 260.122C137.504 260.541 138.088 261.13 138.56 261.889C138.846 262.35 138.796 262.675 138.413 262.865L137.221 263.448C136.872 263.622 136.537 263.487 136.217 263.041C135.953 262.675 135.602 262.354 135.163 262.078C134.725 261.801 134.224 261.629 133.662 261.561C132.305 261.397 131.286 261.709 130.607 262.499C129.928 263.283 129.491 264.482 129.295 266.098C129.1 267.714 129.237 268.986 129.708 269.916C130.18 270.839 131.095 271.382 132.452 271.547C133.111 271.627 133.688 271.631 134.182 271.56C134.676 271.482 135.158 271.294 135.627 270.997L135.837 269.262L133.734 269.007C133.249 268.948 133.032 268.709 133.083 268.288L133.221 267.144C133.272 266.724 133.54 266.544 134.025 266.602L138.232 267.112C138.717 267.171 138.934 267.41 138.883 267.831L138.286 272.755C137.301 273.312 136.33 273.666 135.374 273.819C134.424 273.973 133.325 273.974 132.078 273.823C129.977 273.568 128.415 272.713 127.391 271.258C126.374 269.804 126 267.961 126.271 265.732ZM141.425 274.621C140.972 274.566 140.775 274.297 140.834 273.812L142.343 261.364C142.401 260.879 142.657 260.664 143.109 260.719L144.583 260.898C145.035 260.952 145.232 261.222 145.173 261.707L143.665 274.155C143.606 274.64 143.351 274.855 142.898 274.8L141.425 274.621ZM147.358 275.34C146.905 275.285 146.708 275.016 146.767 274.531L148.276 262.083C148.334 261.598 148.59 261.383 149.042 261.438L150.477 261.612C151.033 261.679 151.426 261.956 151.655 262.443L155.637 270.982L155.705 270.991C155.72 270.599 155.751 270.209 155.798 269.821L156.613 263.093C156.672 262.608 156.927 262.393 157.38 262.448L158.853 262.627C159.306 262.682 159.503 262.951 159.444 263.436L157.936 275.884C157.877 276.369 157.621 276.584 157.169 276.529L155.831 276.367C155.275 276.3 154.882 276.022 154.653 275.536L150.591 266.839L150.524 266.831C150.509 267.223 150.478 267.613 150.431 268L149.598 274.874C149.539 275.359 149.284 275.574 148.831 275.519L147.358 275.34ZM161.075 269.949C161.345 267.719 162.141 266.019 163.463 264.848C164.786 263.677 166.513 263.221 168.646 263.479C169.932 263.635 170.921 263.922 171.611 264.34C172.308 264.759 172.892 265.348 173.364 266.107C173.65 266.568 173.6 266.893 173.217 267.082L172.025 267.666C171.676 267.84 171.341 267.704 171.021 267.259C170.757 266.893 170.406 266.571 169.967 266.295C169.529 266.019 169.028 265.847 168.466 265.779C167.109 265.614 166.09 265.927 165.411 266.717C164.732 267.5 164.295 268.7 164.099 270.316C163.904 271.932 164.041 273.204 164.512 274.133C164.984 275.056 165.899 275.6 167.256 275.764C167.915 275.844 168.492 275.848 168.986 275.777C169.48 275.699 169.962 275.512 170.431 275.215L170.641 273.479L168.538 273.224C168.053 273.166 167.836 272.926 167.887 272.506L168.025 271.362C168.076 270.942 168.344 270.761 168.829 270.82L173.036 271.33C173.521 271.389 173.738 271.628 173.687 272.048L173.09 276.973C172.105 277.529 171.134 277.884 170.178 278.037C169.228 278.19 168.129 278.192 166.882 278.041C164.781 277.786 163.219 276.931 162.195 275.476C161.178 274.021 160.804 272.179 161.075 269.949Z" fill="black"/>
<path d="M178.957 251.327C178.764 249.089 179.178 247.263 180.199 245.848C181.22 244.433 182.801 243.633 184.941 243.448C186.173 243.341 187.234 243.442 188.123 243.751C189.013 244.059 189.664 244.562 190.077 245.258C190.352 245.718 190.341 246.045 190.045 246.241L188.931 246.965C188.541 247.22 188.193 247.126 187.887 246.682C187.693 246.399 187.355 246.157 186.873 245.957C186.399 245.756 185.853 245.682 185.237 245.736C183.875 245.853 182.959 246.367 182.489 247.277C182.018 248.18 181.853 249.443 181.993 251.064C182.133 252.686 182.513 253.904 183.133 254.72C183.752 255.529 184.742 255.875 186.104 255.757C186.837 255.693 187.439 255.475 187.91 255.1C188.387 254.726 188.71 254.381 188.879 254.066C189.155 253.552 189.481 253.399 189.859 253.609L191.094 254.286C191.43 254.472 191.491 254.794 191.275 255.25C190.955 255.932 190.358 256.542 189.483 257.082C188.608 257.621 187.516 257.948 186.206 258.061C184.098 258.244 182.409 257.726 181.141 256.51C179.879 255.292 179.151 253.565 178.957 251.327ZM194.758 256.988C194.304 257.027 194.056 256.803 194.014 256.317L192.933 243.825C192.891 243.338 193.097 243.075 193.551 243.036L195.03 242.908C195.484 242.869 195.732 243.092 195.774 243.579L196.186 248.336L201.42 247.883L201.008 243.126C200.966 242.639 201.172 242.376 201.626 242.337L203.105 242.209C203.559 242.17 203.807 242.393 203.849 242.88L204.93 255.372C204.972 255.859 204.766 256.122 204.312 256.161L202.834 256.289C202.38 256.328 202.131 256.105 202.089 255.618L201.629 250.296L196.394 250.749L196.855 256.071C196.897 256.558 196.691 256.82 196.237 256.86L194.758 256.988ZM207.669 255.87C207.202 255.911 207.031 255.71 207.156 255.268L210.84 242.334C210.995 241.791 211.278 241.502 211.686 241.466L213.048 241.349C213.457 241.313 213.784 241.55 214.031 242.057L219.882 254.166C220.081 254.58 219.947 254.808 219.48 254.848L217.933 254.982C217.505 255.019 217.188 254.821 216.98 254.388L215.761 251.857L210.819 252.285L210.053 254.988C209.923 255.45 209.644 255.699 209.216 255.736L207.669 255.87ZM211.515 249.793L214.648 249.522L213.183 246.532C213.009 246.181 212.899 245.926 212.852 245.767C212.812 245.6 212.761 245.356 212.701 245.035L212.662 245.038C212.657 245.365 212.646 245.615 212.629 245.786C212.617 245.95 212.555 246.22 212.444 246.596L211.515 249.793ZM222.35 254.6C221.896 254.639 221.648 254.415 221.606 253.929L220.525 241.437C220.483 240.95 220.689 240.687 221.143 240.648L222.583 240.523C223.141 240.475 223.582 240.666 223.907 241.095L229.558 248.634L229.626 248.628C229.56 248.242 229.51 247.854 229.477 247.465L228.892 240.712C228.85 240.226 229.056 239.963 229.51 239.924L230.989 239.796C231.443 239.757 231.691 239.98 231.733 240.467L232.814 252.959C232.856 253.445 232.65 253.708 232.196 253.748L230.854 253.864C230.296 253.912 229.855 253.722 229.53 253.292L223.769 245.616L223.701 245.622C223.767 246.008 223.817 246.396 223.85 246.785L224.447 253.683C224.489 254.17 224.283 254.432 223.829 254.472L222.35 254.6ZM234.667 246.506C234.474 244.268 234.903 242.44 235.957 241.022C237.011 239.605 238.608 238.803 240.748 238.618C242.039 238.506 243.065 238.584 243.826 238.851C244.595 239.118 245.287 239.575 245.905 240.22C246.279 240.613 246.298 240.941 245.961 241.205L244.914 242.021C244.609 242.264 244.253 242.2 243.849 241.829C243.515 241.525 243.106 241.283 242.62 241.103C242.133 240.922 241.608 240.857 241.044 240.906C239.682 241.024 238.75 241.539 238.247 242.451C237.744 243.358 237.562 244.621 237.703 246.243C237.843 247.865 238.239 249.082 238.891 249.894C239.542 250.701 240.549 251.045 241.911 250.927C242.573 250.87 243.138 250.755 243.607 250.584C244.075 250.406 244.508 250.124 244.906 249.736L244.755 247.995L242.644 248.178C242.157 248.22 241.896 248.03 241.859 247.608L241.76 246.46C241.723 246.039 241.948 245.807 242.435 245.765L246.657 245.399C247.144 245.357 247.405 245.547 247.442 245.969L247.87 250.911C247.019 251.658 246.142 252.204 245.237 252.55C244.339 252.896 243.265 253.123 242.013 253.231C239.905 253.414 238.2 252.898 236.899 251.684C235.605 250.47 234.861 248.743 234.667 246.506ZM251.324 252.092C250.87 252.132 250.622 251.908 250.58 251.421L249.499 238.929C249.457 238.443 249.663 238.18 250.117 238.14L258.464 237.418C258.951 237.376 259.212 237.566 259.249 237.987L259.348 239.135C259.385 239.557 259.16 239.789 258.673 239.831L252.485 240.366L252.753 243.46L258.425 242.969C258.912 242.927 259.173 243.117 259.21 243.539L259.309 244.687C259.346 245.108 259.121 245.34 258.634 245.382L252.962 245.873L253.275 249.492L259.774 248.93C260.261 248.888 260.522 249.078 260.559 249.499L260.658 250.647C260.695 251.069 260.47 251.301 259.983 251.343L251.324 252.092ZM263.778 251.014C263.324 251.054 263.076 250.83 263.033 250.344L261.952 237.851C261.91 237.365 262.116 237.102 262.57 237.063L267.075 236.673C269.079 236.499 270.569 236.684 271.544 237.227C272.518 237.764 273.065 238.729 273.186 240.124C273.276 241.161 272.975 242.021 272.282 242.701C271.589 243.382 270.678 243.873 269.547 244.173L269.549 244.193C270.192 244.372 270.69 244.656 271.044 245.043C271.397 245.431 271.688 245.772 271.916 246.066L274.349 249.257C274.754 249.783 274.655 250.073 274.052 250.125L272.359 250.272C272.002 250.303 271.694 250.137 271.434 249.774L269.184 246.665C268.94 246.333 268.515 245.984 267.908 245.619C267.307 245.246 266.728 245.084 266.17 245.132L265.45 245.194L265.874 250.098C265.916 250.584 265.71 250.847 265.256 250.886L263.778 251.014ZM265.241 242.781L266.983 242.631C268.28 242.518 269.188 242.293 269.708 241.954C270.233 241.608 270.468 241.114 270.413 240.471C270.352 239.771 270.047 239.34 269.497 239.178C268.953 239.01 268.169 238.97 267.144 239.059L264.936 239.25L265.241 242.781Z" fill="black"/>
<path d="M76.5117 56.3965C76.5117 52.3535 77.5371 49.1426 79.5879 46.7637C81.6387 44.3848 84.5977 43.1953 88.4648 43.1953C90.6914 43.1953 92.5781 43.541 94.125 44.2324C95.6719 44.9238 96.7617 45.9258 97.3945 47.2383C97.8164 48.1055 97.7461 48.6914 97.1836 48.9961L95.0742 50.1211C94.3359 50.5195 93.7266 50.2969 93.2461 49.4531C92.9414 48.9141 92.373 48.4277 91.541 47.9941C90.7207 47.5605 89.7539 47.3438 88.6406 47.3438C86.1797 47.3438 84.457 48.123 83.4727 49.6816C82.4883 51.2285 81.9961 53.4668 81.9961 56.3965C81.9961 59.3262 82.4883 61.5703 83.4727 63.1289C84.457 64.6758 86.1797 65.4492 88.6406 65.4492C89.9648 65.4492 91.0781 65.1504 91.9805 64.5527C92.8945 63.9551 93.5273 63.3867 93.8789 62.8477C94.4531 61.9688 95.0625 61.7461 95.707 62.1797L97.8164 63.5859C98.3906 63.9727 98.4492 64.5586 97.9922 65.3438C97.3125 66.5156 96.1465 67.5176 94.4941 68.3496C92.8418 69.1816 90.832 69.5977 88.4648 69.5977C84.6562 69.5977 81.709 68.4082 79.623 66.0293C77.5488 63.6504 76.5117 60.4395 76.5117 56.3965ZM103.969 69C103.148 69 102.738 68.5605 102.738 67.6816V45.1113C102.738 44.2324 103.148 43.793 103.969 43.793H106.641C107.461 43.793 107.871 44.2324 107.871 45.1113V53.707H117.328V45.1113C117.328 44.2324 117.738 43.793 118.559 43.793H121.23C122.051 43.793 122.461 44.2324 122.461 45.1113V67.6816C122.461 68.5605 122.051 69 121.23 69H118.559C117.738 69 117.328 68.5605 117.328 67.6816V58.0664H107.871V67.6816C107.871 68.5605 107.461 69 106.641 69H103.969ZM127.295 69C126.451 69 126.176 68.6133 126.469 67.8398L135.082 45.2168C135.445 44.2676 135.996 43.793 136.734 43.793H139.195C139.934 43.793 140.484 44.2676 140.848 45.2168L149.461 67.8398C149.754 68.6133 149.479 69 148.635 69H145.84C145.066 69 144.527 68.5957 144.223 67.7871L142.43 63.0586H133.5L131.707 67.7871C131.402 68.5957 130.863 69 130.09 69H127.295ZM135.135 58.6992H140.795L138.633 53.1094C138.375 52.4531 138.217 51.9785 138.158 51.6855C138.111 51.3809 138.059 50.9355 138 50.3496H137.93C137.871 50.9355 137.812 51.3809 137.754 51.6855C137.707 51.9785 137.555 52.4531 137.297 53.1094L135.135 58.6992ZM153.82 69C153 69 152.59 68.5605 152.59 67.6816V45.1113C152.59 44.2324 153 43.793 153.82 43.793H156.422C157.43 43.793 158.191 44.2031 158.707 45.0234L167.672 59.4199H167.795C167.736 58.7168 167.707 58.0137 167.707 57.3105V45.1113C167.707 44.2324 168.117 43.793 168.938 43.793H171.609C172.43 43.793 172.84 44.2324 172.84 45.1113V67.6816C172.84 68.5605 172.43 69 171.609 69H169.184C168.176 69 167.414 68.5898 166.898 67.7695L157.758 53.1094H157.635C157.693 53.8125 157.723 54.5156 157.723 55.2188V67.6816C157.723 68.5605 157.312 69 156.492 69H153.82ZM177.164 56.3965C177.164 52.3535 178.219 49.1426 180.328 46.7637C182.438 44.3848 185.426 43.1953 189.293 43.1953C191.625 43.1953 193.453 43.4941 194.777 44.0918C196.113 44.6895 197.285 45.6152 198.293 46.8691C198.902 47.6309 198.885 48.2227 198.24 48.6445L196.236 49.9453C195.65 50.332 195.023 50.1621 194.355 49.4355C193.805 48.8379 193.107 48.3398 192.264 47.9414C191.42 47.543 190.488 47.3438 189.469 47.3438C187.008 47.3438 185.256 48.123 184.213 49.6816C183.17 51.2285 182.648 53.4668 182.648 56.3965C182.648 59.3262 183.17 61.5703 184.213 63.1289C185.256 64.6758 187.008 65.4492 189.469 65.4492C190.664 65.4492 191.695 65.332 192.562 65.0977C193.43 64.8516 194.25 64.4121 195.023 63.7793V60.6328H191.209C190.33 60.6328 189.891 60.252 189.891 59.4902V57.416C189.891 56.6543 190.33 56.2734 191.209 56.2734H198.838C199.717 56.2734 200.156 56.6543 200.156 57.416V66.3457C198.516 67.5527 196.857 68.3965 195.182 68.877C193.518 69.3574 191.555 69.5977 189.293 69.5977C185.484 69.5977 182.508 68.4082 180.363 66.0293C178.23 63.6504 177.164 60.4395 177.164 56.3965ZM206.168 69C205.348 69 204.938 68.5605 204.938 67.6816V45.1113C204.938 44.2324 205.348 43.793 206.168 43.793H221.25C222.129 43.793 222.568 44.1738 222.568 44.9355V47.0098C222.568 47.7715 222.129 48.1523 221.25 48.1523H210.07V53.7422H220.318C221.197 53.7422 221.637 54.123 221.637 54.8848V56.959C221.637 57.7207 221.197 58.1016 220.318 58.1016H210.07V64.6406H221.812C222.691 64.6406 223.131 65.0215 223.131 65.7832V67.8574C223.131 68.6191 222.691 69 221.812 69H206.168Z" fill="black"/>
<path d="M147.476 214.016C147.706 211.781 148.455 210.065 149.724 208.867C150.993 207.67 152.696 207.181 154.833 207.401C156.064 207.528 157.087 207.826 157.902 208.296C158.718 208.767 159.263 209.382 159.538 210.144C159.721 210.647 159.649 210.967 159.321 211.103L158.091 211.605C157.661 211.783 157.336 211.625 157.119 211.132C156.981 210.816 156.695 210.515 156.26 210.228C155.831 209.942 155.309 209.767 154.694 209.704C153.334 209.563 152.338 209.896 151.705 210.701C151.073 211.5 150.673 212.709 150.507 214.328C150.34 215.947 150.484 217.215 150.939 218.133C151.395 219.044 152.303 219.569 153.663 219.709C154.395 219.785 155.027 219.683 155.56 219.404C156.099 219.126 156.481 218.848 156.706 218.57C157.073 218.117 157.423 218.028 157.754 218.305L158.84 219.202C159.135 219.448 159.134 219.776 158.837 220.183C158.395 220.792 157.693 221.28 156.733 221.645C155.772 222.011 154.638 222.127 153.33 221.992C151.225 221.775 149.664 220.95 148.647 219.516C147.636 218.083 147.245 216.25 147.476 214.016ZM161.932 222.544C161.478 222.498 161.277 222.231 161.327 221.746L162.612 209.273C162.662 208.787 162.914 208.567 163.367 208.614L164.844 208.766C165.297 208.813 165.499 209.079 165.448 209.565L164.959 214.315L170.185 214.854L170.675 210.104C170.725 209.618 170.976 209.398 171.43 209.445L172.906 209.597C173.36 209.644 173.561 209.91 173.511 210.396L172.226 222.869C172.176 223.355 171.924 223.574 171.471 223.527L169.994 223.375C169.541 223.328 169.339 223.062 169.389 222.577L169.937 217.263L164.711 216.724L164.163 222.038C164.113 222.524 163.861 222.743 163.408 222.697L161.932 222.544ZM174.822 223.873C174.356 223.825 174.226 223.595 174.432 223.185L180.48 211.173C180.735 210.669 181.066 210.438 181.474 210.48L182.834 210.62C183.242 210.662 183.52 210.956 183.666 211.501L187.138 224.494C187.256 224.938 187.082 225.136 186.615 225.088L185.071 224.929C184.643 224.885 184.368 224.631 184.246 224.166L183.525 221.451L178.59 220.943L177.33 223.454C177.115 223.883 176.794 224.076 176.367 224.032L174.822 223.873ZM179.741 218.627L182.869 218.949L181.993 215.737C181.888 215.359 181.827 215.088 181.812 214.923C181.803 214.752 181.799 214.503 181.8 214.176L181.761 214.172C181.696 214.492 181.638 214.735 181.588 214.9C181.546 215.059 181.434 215.313 181.255 215.661L179.741 218.627ZM189.481 225.383C189.028 225.337 188.826 225.07 188.876 224.585L190.161 212.112C190.211 211.626 190.463 211.406 190.916 211.453L192.354 211.601C192.911 211.659 193.309 211.929 193.547 212.411L197.681 220.878L197.749 220.885C197.757 220.493 197.781 220.103 197.821 219.714L198.516 212.973C198.566 212.487 198.817 212.267 199.271 212.314L200.747 212.466C201.201 212.513 201.402 212.779 201.352 213.265L200.067 225.738C200.017 226.224 199.765 226.443 199.312 226.396L197.971 226.258C197.414 226.201 197.017 225.931 196.778 225.448L192.562 216.826L192.494 216.819C192.486 217.211 192.462 217.601 192.422 217.99L191.713 224.877C191.663 225.363 191.411 225.582 190.958 225.535L189.481 225.383ZM203.099 219.748C203.329 217.513 204.095 215.799 205.396 214.604C206.697 213.41 208.417 212.923 210.554 213.143C211.842 213.276 212.836 213.545 213.533 213.951C214.238 214.357 214.833 214.935 215.318 215.686C215.612 216.141 215.568 216.467 215.188 216.664L214.006 217.269C213.661 217.449 213.324 217.319 212.996 216.88C212.726 216.518 212.369 216.203 211.925 215.935C211.482 215.667 210.978 215.504 210.415 215.445C209.055 215.305 208.042 215.636 207.377 216.438C206.712 217.234 206.297 218.441 206.13 220.06C205.963 221.679 206.124 222.949 206.611 223.87C207.099 224.784 208.024 225.311 209.384 225.451C210.044 225.519 210.621 225.513 211.113 225.433C211.606 225.346 212.085 225.15 212.548 224.845L212.727 223.106L210.62 222.889C210.134 222.838 209.913 222.603 209.956 222.182L210.074 221.036C210.118 220.615 210.382 220.429 210.868 220.479L215.084 220.914C215.569 220.964 215.791 221.199 215.747 221.62L215.239 226.555C214.263 227.129 213.299 227.501 212.345 227.671C211.398 227.841 210.3 227.862 209.05 227.734C206.945 227.517 205.368 226.69 204.319 225.253C203.275 223.817 202.869 221.982 203.099 219.748ZM218.41 228.364C217.956 228.318 217.755 228.051 217.805 227.566L219.09 215.093C219.14 214.607 219.392 214.387 219.845 214.434L228.18 215.293C228.666 215.343 228.887 215.579 228.844 216L228.725 217.146C228.682 217.567 228.418 217.752 227.932 217.702L221.754 217.066L221.435 220.155L227.099 220.738C227.584 220.788 227.805 221.024 227.762 221.445L227.644 222.591C227.601 223.012 227.336 223.197 226.85 223.147L221.187 222.564L220.815 226.177L227.304 226.846C227.789 226.896 228.011 227.132 227.967 227.553L227.849 228.699C227.806 229.12 227.541 229.305 227.055 229.255L218.41 228.364ZM230.436 228.553C230.066 228.207 230.001 227.89 230.24 227.6L231.104 226.551C231.388 226.207 231.75 226.224 232.188 226.603C232.525 226.893 232.971 227.204 233.525 227.536C234.087 227.863 234.692 228.059 235.34 228.126C235.793 228.173 236.236 228.166 236.667 228.106C237.099 228.045 237.44 227.878 237.691 227.602C237.942 227.327 238.088 226.986 238.13 226.578C238.16 226.286 238.138 226.025 238.064 225.795C237.989 225.565 237.849 225.367 237.644 225.202C237.438 225.037 237.224 224.894 237.001 224.773C236.61 224.562 236.112 224.344 235.507 224.118C234.91 223.886 234.321 223.623 233.743 223.328C233.227 223.065 232.764 222.729 232.355 222.321C231.945 221.912 231.641 221.468 231.441 220.989C231.242 220.511 231.181 219.893 231.259 219.135C231.352 218.235 231.723 217.494 232.372 216.913C233.021 216.332 233.734 215.99 234.51 215.886C235.286 215.783 236.06 215.771 236.831 215.851C237.595 215.929 238.37 216.127 239.155 216.444C239.947 216.761 240.532 217.116 240.911 217.508C241.283 217.893 241.352 218.215 241.116 218.472L240.22 219.45C239.917 219.785 239.558 219.777 239.142 219.427C238.877 219.203 238.508 218.946 238.034 218.655C237.566 218.365 237.064 218.192 236.526 218.136C236.144 218.097 235.788 218.093 235.457 218.124C235.133 218.156 234.836 218.283 234.564 218.503C234.293 218.724 234.138 219.016 234.101 219.379C234.065 219.728 234.126 220.023 234.285 220.261C234.444 220.494 234.628 220.676 234.837 220.809C235.047 220.936 235.261 221.046 235.48 221.141C236.156 221.439 236.761 221.704 237.293 221.936C237.826 222.161 238.315 222.401 238.76 222.657C239.378 223.015 239.843 223.357 240.156 223.684C240.47 224.011 240.71 224.438 240.878 224.966C241.053 225.495 241.104 226.108 241.032 226.808C240.925 227.844 240.507 228.668 239.776 229.28C239.046 229.886 238.266 230.244 237.437 230.355C236.613 230.473 235.819 230.492 235.055 230.413C233.928 230.297 233.023 230.093 232.34 229.8C231.656 229.513 231.021 229.098 230.436 228.553Z" fill="black"/>
<path d="M37.5087 227.416C37.2191 225.189 37.554 223.347 38.5134 221.889C39.4728 220.432 41.0178 219.564 43.1483 219.287C44.375 219.128 45.4391 219.183 46.3409 219.453C47.2426 219.723 47.9148 220.197 48.3574 220.875C48.652 221.323 48.6552 221.651 48.3671 221.859L47.2856 222.63C46.9074 222.902 46.5557 222.823 46.2306 222.392C46.0241 222.117 45.6762 221.89 45.1867 221.711C44.7038 221.531 44.1556 221.481 43.5423 221.56C42.1865 221.737 41.2933 222.289 40.8626 223.218C40.4311 224.141 40.3203 225.41 40.5301 227.024C40.74 228.638 41.1719 229.839 41.8258 230.627C42.4789 231.408 43.4834 231.711 44.8391 231.535C45.5687 231.44 46.1606 231.196 46.6149 230.802C47.0757 230.407 47.3836 230.049 47.5387 229.726C47.792 229.201 48.1118 229.035 48.498 229.228L49.7608 229.851C50.1048 230.023 50.1791 230.342 49.9835 230.807C49.693 231.501 49.1224 232.137 48.2717 232.714C47.421 233.29 46.3436 233.663 45.0394 233.833C42.9412 234.106 41.2323 233.662 39.9127 232.5C38.5996 231.338 37.7983 229.644 37.5087 227.416ZM53.538 232.393C53.0861 232.452 52.8286 232.239 52.7657 231.755L51.149 219.321C51.0861 218.836 51.2806 218.565 51.7325 218.506L53.2045 218.315C53.6564 218.256 53.9139 218.469 53.9768 218.953L54.5925 223.688L59.8025 223.011L59.1869 218.276C59.1239 217.791 59.3184 217.52 59.7703 217.461L61.2423 217.27C61.6942 217.211 61.9517 217.424 62.0146 217.908L63.6313 230.342C63.6942 230.827 63.4997 231.098 63.0478 231.157L61.5758 231.348C61.1239 231.407 60.8665 231.194 60.8035 230.71L60.1148 225.413L54.9047 226.09L55.5935 231.387C55.6564 231.872 55.4619 232.143 55.01 232.202L53.538 232.393ZM66.3888 230.722C65.924 230.783 65.7446 230.59 65.8506 230.142L68.9754 217.062C69.1075 216.513 69.377 216.212 69.7837 216.159L71.1395 215.983C71.5462 215.93 71.8836 216.152 72.1518 216.649L78.5174 228.496C78.7342 228.901 78.6102 229.133 78.1454 229.194L76.6056 229.394C76.1795 229.449 75.8535 229.265 75.6278 228.842L74.3013 226.365L69.3818 227.005L68.7327 229.738C68.6227 230.205 68.3547 230.467 67.9286 230.522L66.3888 230.722ZM69.9701 224.486L73.0884 224.081L71.4969 221.156C71.3079 220.813 71.1867 220.563 71.1334 220.405C71.0858 220.241 71.0248 219.999 70.9506 219.681L70.9119 219.686C70.9215 220.013 70.9212 220.262 70.9107 220.434C70.9059 220.599 70.8559 220.872 70.7609 221.252L69.9701 224.486ZM81.0022 228.822C80.5503 228.881 80.2928 228.668 80.2299 228.184L78.6132 215.75C78.5503 215.266 78.7447 214.994 79.1967 214.935L80.6299 214.749C81.1851 214.677 81.6342 214.848 81.977 215.263L87.9471 222.552L88.0149 222.544C87.9322 222.16 87.8657 221.775 87.8153 221.388L86.9415 214.667C86.8786 214.183 87.0731 213.911 87.525 213.853L88.997 213.661C89.4489 213.602 89.7064 213.815 89.7693 214.299L91.386 226.734C91.4489 227.218 91.2544 227.49 90.8025 227.548L89.4661 227.722C88.9109 227.794 88.4618 227.623 88.119 227.208L82.0332 219.786L81.9654 219.795C82.0481 220.178 82.1146 220.563 82.1649 220.951L83.0576 227.817C83.1206 228.301 82.9261 228.572 82.4742 228.631L81.0022 228.822ZM92.9599 220.207C92.6703 217.98 93.0214 216.135 94.0131 214.673C95.0048 213.212 96.5659 212.342 98.6964 212.065C99.9812 211.898 101.01 211.932 101.782 212.166C102.561 212.4 103.273 212.826 103.918 213.445C104.308 213.821 104.341 214.148 104.016 214.427L103.005 215.287C102.71 215.542 102.352 215.493 101.932 215.141C101.586 214.851 101.166 214.626 100.673 214.467C100.18 214.308 99.6521 214.265 99.0904 214.338C97.7346 214.514 96.8252 215.069 96.3623 216.003C95.8985 216.93 95.7715 218.2 95.9814 219.814C96.1912 221.428 96.6393 222.627 97.3255 223.411C98.0109 224.189 99.0315 224.489 100.387 224.313C101.046 224.227 101.605 224.089 102.066 223.898C102.527 223.7 102.947 223.399 103.328 222.995L103.102 221.262L101.001 221.535C100.517 221.598 100.247 221.419 100.193 221L100.044 219.857C99.9897 219.437 100.205 219.196 100.689 219.133L104.892 218.587C105.376 218.524 105.645 218.702 105.7 219.122L106.339 224.041C105.522 224.824 104.669 225.407 103.78 225.792C102.898 226.176 101.834 226.449 100.588 226.611C98.4893 226.884 96.7643 226.442 95.4124 225.285C94.067 224.127 93.2495 222.434 92.9599 220.207ZM109.841 225.073C109.39 225.132 109.132 224.919 109.069 224.435L107.453 212C107.39 211.516 107.584 211.245 108.036 211.186L116.345 210.106C116.829 210.043 117.099 210.221 117.153 210.641L117.302 211.783C117.356 212.203 117.141 212.444 116.657 212.507L110.498 213.308L110.898 216.388L116.544 215.654C117.029 215.591 117.298 215.769 117.352 216.189L117.501 217.331C117.556 217.751 117.341 217.992 116.857 218.055L111.211 218.789L111.679 222.392L118.148 221.551C118.632 221.488 118.902 221.666 118.956 222.086L119.105 223.228C119.159 223.648 118.945 223.889 118.46 223.952L109.841 225.073ZM122.237 223.461C121.785 223.52 121.528 223.307 121.465 222.823L119.848 210.389C119.785 209.905 119.98 209.633 120.432 209.574L123.811 209.135C126.781 208.749 128.867 209.088 130.069 210.153C131.278 211.217 132.026 212.856 132.314 215.071C132.602 217.285 132.298 219.068 131.404 220.418C130.516 221.768 128.587 222.636 125.617 223.022L122.237 223.461ZM124.075 220.78L125.121 220.644C127.122 220.384 128.368 219.844 128.859 219.026C129.349 218.2 129.494 217.013 129.292 215.463C129.091 213.914 128.648 212.809 127.965 212.15C127.281 211.484 125.939 211.281 123.937 211.541L122.891 211.677L124.075 220.78Z" fill="black"/>
<g filter="url(#filter0_d_0_1)">
<path d="M153.003 115.302C152.206 114.506 151.126 114.059 150 114.059C148.874 114.059 147.794 114.506 146.997 115.302L130.963 131.327C130.166 132.124 129.718 133.206 129.718 134.333C129.718 135.461 130.166 136.542 130.963 137.339C131.76 138.137 132.841 138.585 133.969 138.585C135.097 138.585 136.178 138.137 136.975 137.339L145.75 128.567V161.25C145.75 162.377 146.198 163.458 146.995 164.255C147.792 165.052 148.873 165.5 150 165.5C151.127 165.5 152.208 165.052 153.005 164.255C153.802 163.458 154.25 162.377 154.25 161.25V128.567L163.022 137.339C163.417 137.734 163.885 138.047 164.401 138.261C164.917 138.475 165.47 138.585 166.028 138.585C166.586 138.585 167.139 138.475 167.655 138.261C168.171 138.047 168.64 137.734 169.034 137.339C169.429 136.945 169.742 136.476 169.956 135.96C170.17 135.444 170.28 134.892 170.28 134.333C170.28 133.775 170.17 133.222 169.956 132.706C169.742 132.191 169.429 131.722 169.034 131.327L153.003 115.302Z" fill="black"/>
</g>
<defs>
<filter id="filter0_d_0_1" x="112" y="106" width="76" height="76" filterUnits="userSpaceOnUse" color-interpolation-filters="sRGB">
<feFlood flood-opacity="0" result="BackgroundImageFix"/>
<feColorMatrix in="SourceAlpha" type="matrix" values="0 0 0 0 0 0 0 0 0 0 0 0 0 0 0 0 0 0 127 0" result="hardAlpha"/>
<feOffset dy="4"/>
<feGaussianBlur stdDeviation="2"/>
<feComposite in2="hardAlpha" operator="out"/>
<feColorMatrix type="matrix" values="0 0 0 0 0 0 0 0 0 0 0 0 0 0 0 0 0 0 0.25 0"/>
<feBlend mode="normal" in2="BackgroundImageFix" result="effect1_dropShadow_0_1"/>
<feBlend mode="normal" in="SourceGraphic" in2="effect1_dropShadow_0_1" result="shape"/>
</filter>
</defs>
</svg>
