<svg width="300" height="300" viewBox="0 0 300 300" fill="none" xmlns="http://www.w3.org/2000/svg">
<rect width="300" height="300" fill="#1E1E1E"/>
<rect width="300" height="300" fill="white"/>
<path d="M65.265 135.767C64.865 134.142 65.2832 133.329 66.5196 133.329H71.5652C72.4198 133.329 72.9925 134 73.2834 135.34L78.4654 159.291C78.8472 161.038 79.0927 162.237 79.2018 162.887C79.3291 163.516 79.4382 164.542 79.5291 165.964H79.6654C79.7564 164.542 79.8473 163.466 79.9382 162.734C80.0291 162.003 80.2927 160.794 80.7291 159.108L86.8111 135.584C87.1929 134.081 87.9566 133.329 89.1021 133.329H94.1204C95.2659 133.329 96.0295 134.081 96.4114 135.584L102.493 159.108C102.93 160.794 103.193 162.003 103.284 162.734C103.375 163.466 103.466 164.542 103.557 165.964H103.693C103.784 164.542 103.884 163.516 103.993 162.887C104.121 162.237 104.375 161.038 104.757 159.291L109.939 135.34C110.23 134 110.803 133.329 111.657 133.329H116.703C117.939 133.329 118.357 134.142 117.957 135.767L108.684 174.07C108.212 176.04 107.357 177.025 106.121 177.025H101.348C100.293 177.025 99.5205 176.05 99.0296 174.1L92.484 148.565C92.1203 147.184 91.9112 146.29 91.8567 145.884C91.8021 145.457 91.7294 144.675 91.6385 143.537H91.584C91.493 144.675 91.4203 145.457 91.3658 145.884C91.3112 146.29 91.1021 147.184 90.7385 148.565L84.1928 174.1C83.7019 176.05 82.9292 177.025 81.8746 177.025H77.1017C75.8653 177.025 75.0108 176.04 74.538 174.07L65.265 135.767Z" fill="black"/>
<path d="M120.93 155.177C120.93 148.169 122.548 142.603 125.785 138.479C129.021 134.355 133.64 132.293 139.64 132.293C145.64 132.293 150.258 134.355 153.495 138.479C156.731 142.603 158.349 148.169 158.349 155.177C158.349 162.186 156.731 167.752 153.495 171.876C150.258 175.999 145.64 178.061 139.64 178.061C133.64 178.061 129.021 175.999 125.785 171.876C122.548 167.752 120.93 162.186 120.93 155.177ZM129.44 155.177C129.44 160.256 130.249 164.146 131.867 166.848C133.503 169.529 136.094 170.87 139.64 170.87C143.185 170.87 145.767 169.529 147.386 166.848C149.022 164.146 149.84 160.256 149.84 155.177C149.84 150.099 149.022 146.219 147.386 143.537C145.767 140.835 143.185 139.485 139.64 139.485C136.094 139.485 133.503 140.835 131.867 143.537C130.249 146.219 129.44 150.099 129.44 155.177Z" fill="black"/>
<path d="M166.968 177.025C165.695 177.025 165.059 176.263 165.059 174.74V135.615C165.059 134.091 165.695 133.329 166.968 133.329H179.596C185.214 133.329 189.314 134.304 191.896 136.255C194.478 138.184 195.769 141.333 195.769 145.701C195.769 148.951 194.723 151.541 192.632 153.471C190.541 155.401 187.887 156.681 184.668 157.31V157.371C186.414 158.103 187.732 159.118 188.623 160.418C189.514 161.718 190.241 162.856 190.805 163.831L196.805 174.405C197.805 176.152 197.46 177.025 195.769 177.025H191.023C190.023 177.025 189.205 176.426 188.568 175.227L183.059 164.959C182.459 163.862 181.359 162.663 179.759 161.363C178.177 160.043 176.605 159.382 175.041 159.382H173.023V174.74C173.023 176.263 172.386 177.025 171.113 177.025H166.968ZM173.023 151.825H177.905C181.541 151.825 184.123 151.368 185.65 150.454C187.196 149.52 187.968 148.047 187.968 146.036C187.968 143.842 187.223 142.42 185.732 141.77C184.259 141.1 182.086 140.764 179.214 140.764H173.023V151.825Z" fill="black"/>
<path d="M205.914 177.025C204.642 177.025 204.005 176.263 204.005 174.74V135.615C204.005 134.091 204.642 133.329 205.914 133.329H215.433C223.797 133.329 229.451 135.219 232.397 138.997C235.361 142.775 236.843 148.149 236.843 155.116C236.843 162.084 235.361 167.478 232.397 171.297C229.451 175.116 223.797 177.025 215.433 177.025H205.914ZM211.969 169.468H214.915C220.551 169.468 224.197 168.3 225.851 165.964C227.506 163.608 228.333 159.992 228.333 155.116C228.333 150.241 227.506 146.645 225.851 144.33C224.197 141.993 220.551 140.825 214.915 140.825H211.969V169.468Z" fill="black"/>
<path d="M153.858 191.232C152.949 191.232 152.495 190.792 152.495 189.911V187.352C152.495 186.471 152.949 186.031 153.858 186.031H172.55C173.459 186.031 173.914 186.471 173.914 187.352V189.911C173.914 190.792 173.459 191.232 172.55 191.232H165.859V214.045C165.859 214.789 165.556 215.162 164.95 215.162H161.459C160.853 215.162 160.55 214.789 160.55 214.045V191.232H153.858Z" fill="black"/>
<path d="M178.714 215.162C177.865 215.162 177.441 214.654 177.441 213.638V187.555C177.441 186.539 177.865 186.031 178.714 186.031H181.477C182.326 186.031 182.75 186.539 182.75 187.555V197.488H192.532V187.555C192.532 186.539 192.956 186.031 193.805 186.031H196.569C197.417 186.031 197.841 186.539 197.841 187.555V213.638C197.841 214.654 197.417 215.162 196.569 215.162H193.805C192.956 215.162 192.532 214.654 192.532 213.638V202.526H182.75V213.638C182.75 214.654 182.326 215.162 181.477 215.162H178.714Z" fill="black"/>
<path d="M204.933 215.162C204.084 215.162 203.66 214.654 203.66 213.638V187.555C203.66 186.539 204.084 186.031 204.933 186.031H220.533C221.442 186.031 221.897 186.471 221.897 187.352V189.749C221.897 190.629 221.442 191.069 220.533 191.069H208.969V197.529H219.569C220.478 197.529 220.933 197.969 220.933 198.85V201.247C220.933 202.127 220.478 202.567 219.569 202.567H208.969V210.124H221.115C222.024 210.124 222.479 210.564 222.479 211.444V213.841C222.479 214.722 222.024 215.162 221.115 215.162H204.933Z" fill="black"/>
<path d="M84.6868 126.754C83.8383 126.754 83.414 126.246 83.414 125.231V99.1473C83.414 98.1316 83.8383 97.6237 84.6868 97.6237H87.4505C88.299 97.6237 88.7233 98.1316 88.7233 99.1473V109.081H98.5054V99.1473C98.5054 98.1316 98.9296 97.6237 99.7781 97.6237H102.542C103.39 97.6237 103.815 98.1316 103.815 99.1473V125.231C103.815 126.246 103.39 126.754 102.542 126.754H99.7781C98.9296 126.754 98.5054 126.246 98.5054 125.231V114.119H88.7233V125.231C88.7233 126.246 88.299 126.754 87.4505 126.754H84.6868Z" fill="black"/>
<path d="M110.906 126.754C110.057 126.754 109.633 126.246 109.633 125.231V99.1473C109.633 98.1316 110.057 97.6237 110.906 97.6237H113.669C114.518 97.6237 114.942 98.1316 114.942 99.1473V125.231C114.942 126.246 114.518 126.754 113.669 126.754H110.906Z" fill="black"/>
<path d="M121.07 124.581C120.318 123.944 120.136 123.301 120.524 122.651L121.924 120.294C122.385 119.522 123.058 119.482 123.942 120.173C124.621 120.701 125.506 121.249 126.597 121.818C127.7 122.373 128.858 122.651 130.07 122.651C130.918 122.651 131.737 122.543 132.524 122.326C133.312 122.109 133.912 121.689 134.325 121.066C134.737 120.443 134.943 119.705 134.943 118.852C134.943 118.243 134.852 117.708 134.67 117.247C134.488 116.787 134.191 116.408 133.779 116.11C133.367 115.812 132.943 115.561 132.506 115.358C131.743 115.006 130.779 114.661 129.615 114.322C128.464 113.97 127.324 113.55 126.197 113.063C125.191 112.629 124.27 112.033 123.433 111.275C122.597 110.516 121.948 109.663 121.488 108.715C121.027 107.767 120.797 106.501 120.797 104.917C120.797 103.034 121.342 101.422 122.433 100.082C123.524 98.741 124.779 97.881 126.197 97.5018C127.615 97.1226 129.046 96.933 130.488 96.933C131.918 96.933 133.391 97.1768 134.906 97.6643C136.434 98.1519 137.585 98.7613 138.361 99.4926C139.125 100.21 139.313 100.86 138.925 101.443L137.452 103.657C136.955 104.415 136.288 104.476 135.452 103.84C134.919 103.434 134.185 102.98 133.252 102.479C132.331 101.978 131.367 101.727 130.361 101.727C129.646 101.727 128.985 101.795 128.379 101.93C127.785 102.066 127.258 102.391 126.797 102.905C126.336 103.42 126.106 104.057 126.106 104.815C126.106 105.546 126.276 106.142 126.615 106.603C126.955 107.05 127.33 107.388 127.743 107.618C128.155 107.835 128.573 108.018 128.997 108.167C130.306 108.641 131.476 109.061 132.506 109.426C133.537 109.778 134.488 110.171 135.361 110.605C136.573 111.214 137.5 111.823 138.143 112.433C138.785 113.042 139.313 113.875 139.725 114.931C140.149 115.988 140.361 117.247 140.361 118.71C140.361 120.877 139.743 122.671 138.506 124.093C137.27 125.502 135.894 126.409 134.379 126.815C132.876 127.235 131.409 127.445 129.979 127.445C127.87 127.445 126.155 127.215 124.833 126.754C123.512 126.307 122.258 125.583 121.07 124.581Z" fill="black"/>
<path d="M25.7276 215.162C24.8791 215.162 24.4548 214.654 24.4548 213.638V187.555C24.4548 186.539 24.8791 186.031 25.7276 186.031H28.6731C29.4004 186.031 29.764 186.539 29.764 187.555V210.124H40.3643C41.2735 210.124 41.728 210.564 41.728 211.444V213.841C41.728 214.722 41.2735 215.162 40.3643 215.162H25.7276Z" fill="black"/>
<path d="M46.8554 215.162C46.0069 215.162 45.5827 214.654 45.5827 213.638V187.555C45.5827 186.539 46.0069 186.031 46.8554 186.031H49.6191C50.4677 186.031 50.8919 186.539 50.8919 187.555V213.638C50.8919 214.654 50.4677 215.162 49.6191 215.162H46.8554Z" fill="black"/>
<path d="M57.983 215.162C57.1345 215.162 56.7103 214.654 56.7103 213.638V187.555C56.7103 186.539 57.1345 186.031 57.983 186.031H60.674C61.7165 186.031 62.5044 186.505 63.0377 187.453L72.3107 204.091H72.438C72.3774 203.278 72.3471 202.465 72.3471 201.653V187.555C72.3471 186.539 72.7713 186.031 73.6198 186.031H76.3835C77.232 186.031 77.6563 186.539 77.6563 187.555V213.638C77.6563 214.654 77.232 215.162 76.3835 215.162H73.8744C72.8319 215.162 72.044 214.688 71.5107 213.74L62.0559 196.798H61.9286C61.9892 197.61 62.0195 198.423 62.0195 199.235V213.638C62.0195 214.654 61.5952 215.162 60.7467 215.162H57.983Z" fill="black"/>
<path d="M84.7474 215.162C83.8989 215.162 83.4746 214.654 83.4746 213.638V187.555C83.4746 186.539 83.8989 186.031 84.7474 186.031H100.348C101.257 186.031 101.712 186.471 101.712 187.352V189.749C101.712 190.629 101.257 191.069 100.348 191.069H88.7839V197.529H99.3842C100.293 197.529 100.748 197.969 100.748 198.85V201.247C100.748 202.127 100.293 202.567 99.3842 202.567H88.7839V210.124H100.93C101.839 210.124 102.293 210.564 102.293 211.444V213.841C102.293 214.722 101.839 215.162 100.93 215.162H84.7474Z" fill="black"/>
<path d="M142.567 261.363C142.567 262.338 142.167 262.656 141.367 262.318L117.967 252.364C116.985 251.944 116.494 251.308 116.494 250.454V247.61C116.494 246.757 116.985 246.121 117.967 245.701L141.367 235.747C142.167 235.408 142.567 235.727 142.567 236.702V239.932C142.567 240.825 142.149 241.448 141.313 241.801L136.422 243.873V254.192L141.313 256.264C142.149 256.616 142.567 257.239 142.567 258.133V261.363ZM131.912 252.303V245.762L126.13 248.26C125.452 248.558 124.961 248.741 124.658 248.809C124.342 248.863 123.882 248.924 123.276 248.992V249.073C123.882 249.141 124.342 249.208 124.658 249.276C124.961 249.33 125.452 249.506 126.13 249.804L131.912 252.303Z" fill="black"/>
<path d="M142.567 230.709C142.567 231.657 142.113 232.131 141.204 232.131H117.857C116.948 232.131 116.494 231.657 116.494 230.709V221.304C116.494 217.119 117.076 214.065 118.239 212.142C119.391 210.219 121.27 209.257 123.876 209.257C125.815 209.257 127.361 210.036 128.512 211.593C129.664 213.151 130.427 215.128 130.803 217.525H130.84C131.276 216.225 131.882 215.243 132.658 214.579C133.434 213.916 134.112 213.374 134.694 212.954L141.004 208.485C142.046 207.74 142.567 207.998 142.567 209.257V212.792C142.567 213.537 142.21 214.146 141.494 214.62L135.367 218.724C134.712 219.171 133.997 219.99 133.221 221.182C132.434 222.36 132.04 223.531 132.04 224.696V226.199H141.204C142.113 226.199 142.567 226.673 142.567 227.621V230.709ZM127.53 226.199V222.563C127.53 219.854 127.258 217.931 126.712 216.794C126.155 215.643 125.276 215.067 124.076 215.067C122.767 215.067 121.918 215.622 121.53 216.733C121.13 217.83 120.93 219.448 120.93 221.588V226.199H127.53Z" fill="black"/>
<path d="M142.567 201.7C142.567 202.648 142.113 203.122 141.204 203.122H117.857C116.948 203.122 116.494 202.648 116.494 201.7V184.271C116.494 183.255 116.888 182.747 117.676 182.747H119.821C120.609 182.747 121.003 183.255 121.003 184.271V197.191H126.785V185.347C126.785 184.332 127.179 183.824 127.967 183.824H130.112C130.9 183.824 131.294 184.332 131.294 185.347V197.191H138.058V183.621C138.058 182.605 138.452 182.097 139.24 182.097H141.385C142.173 182.097 142.567 182.605 142.567 183.621V201.7Z" fill="black"/>
<path d="M241.867 117.911C241.867 117.261 242.134 117.049 242.667 117.274L258.267 123.91C258.922 124.19 259.249 124.615 259.249 125.183V127.079C259.249 127.648 258.922 128.072 258.267 128.352L242.667 134.988C242.134 135.214 241.867 135.002 241.867 134.352V132.199C241.867 131.603 242.146 131.187 242.703 130.953L245.964 129.571V122.691L242.703 121.31C242.146 121.075 241.867 120.66 241.867 120.064V117.911ZM248.97 123.951V128.312L252.825 126.646C253.277 126.447 253.605 126.325 253.807 126.28C254.017 126.244 254.324 126.204 254.728 126.158V126.104C254.324 126.059 254.017 126.014 253.807 125.969C253.605 125.933 253.277 125.815 252.825 125.617L248.97 123.951Z" fill="black"/>
<path d="M241.867 138.347C241.867 137.715 242.17 137.399 242.776 137.399H258.34C258.946 137.399 259.249 137.715 259.249 138.347V140.351C259.249 141.128 258.966 141.715 258.401 142.112L248.473 149.019V149.114C248.958 149.068 249.443 149.046 249.928 149.046H258.34C258.946 149.046 259.249 149.362 259.249 149.994V152.052C259.249 152.684 258.946 153 258.34 153H242.776C242.17 153 241.867 152.684 241.867 152.052V150.183C241.867 149.407 242.15 148.82 242.715 148.423L252.825 141.381V141.286C252.34 141.331 251.855 141.353 251.37 141.353H242.776C242.17 141.353 241.867 141.037 241.867 140.405V138.347Z" fill="black"/>
<path d="M241.867 158.282C241.867 157.65 242.17 157.334 242.776 157.334H258.34C258.946 157.334 259.249 157.65 259.249 158.282V163.008C259.249 167.162 258.498 169.969 256.995 171.432C255.492 172.904 253.354 173.64 250.582 173.64C247.811 173.64 245.665 172.904 244.146 171.432C242.627 169.969 241.867 167.162 241.867 163.008V158.282ZM244.873 161.289V162.751C244.873 165.55 245.338 167.36 246.267 168.182C247.204 169.003 248.643 169.414 250.582 169.414C252.522 169.414 253.952 169.003 254.873 168.182C255.803 167.36 256.267 165.55 256.267 162.751V161.289H244.873Z" fill="black"/>
<path d="M249.625 274.276C249.625 274.926 249.358 275.138 248.825 274.913L233.224 268.277C232.57 267.997 232.242 267.573 232.242 267.004V265.108C232.242 264.539 232.57 264.115 233.224 263.835L248.825 257.199C249.358 256.973 249.625 257.185 249.625 257.835V259.989C249.625 260.584 249.346 261 248.788 261.234L245.528 262.616V269.496L248.788 270.877C249.346 271.112 249.625 271.527 249.625 272.123V274.276ZM242.522 268.236V263.875L238.667 265.541C238.214 265.74 237.887 265.862 237.685 265.907C237.475 265.943 237.168 265.984 236.764 266.029V266.083C237.168 266.128 237.475 266.173 237.685 266.218C237.887 266.254 238.214 266.372 238.667 266.57L242.522 268.236Z" fill="black"/>
<path d="M249.625 253.84C249.625 254.472 249.322 254.788 248.716 254.788H233.152C232.545 254.788 232.242 254.472 232.242 253.84V251.646C232.242 251.104 232.545 250.834 233.152 250.834H246.619V242.938C246.619 242.261 246.881 241.922 247.406 241.922H248.837C249.362 241.922 249.625 242.261 249.625 242.938V253.84Z" fill="black"/>
<path d="M240.934 240.054C238.146 240.054 235.931 239.25 234.291 237.643C232.651 236.036 231.83 233.743 231.83 230.763C231.83 227.784 232.651 225.49 234.291 223.883C235.931 222.276 238.146 221.473 240.934 221.473C243.722 221.473 245.936 222.276 247.576 223.883C249.217 225.49 250.037 227.784 250.037 230.763C250.037 233.743 249.217 236.036 247.576 237.643C245.936 239.25 243.722 240.054 240.934 240.054ZM240.934 235.828C242.954 235.828 244.501 235.426 245.576 234.623C246.643 233.81 247.176 232.524 247.176 230.763C247.176 229.003 246.643 227.721 245.576 226.917C244.501 226.104 242.954 225.698 240.934 225.698C238.913 225.698 237.37 226.104 236.303 226.917C235.228 227.721 234.691 229.003 234.691 230.763C234.691 232.524 235.228 233.81 236.303 234.623C237.37 235.426 238.913 235.828 240.934 235.828Z" fill="black"/>
<path d="M249.625 217.193C249.625 217.825 249.322 218.141 248.716 218.141H233.152C232.545 218.141 232.242 217.825 232.242 217.193V215.189C232.242 214.412 232.525 213.826 233.091 213.428L243.018 206.522V206.427C242.534 206.472 242.049 206.494 241.564 206.494H233.152C232.545 206.494 232.242 206.178 232.242 205.546V203.488C232.242 202.856 232.545 202.54 233.152 202.54H248.716C249.322 202.54 249.625 202.856 249.625 203.488V205.357C249.625 206.133 249.342 206.72 248.776 207.117L238.667 214.16V214.254C239.152 214.209 239.637 214.187 240.121 214.187H248.716C249.322 214.187 249.625 214.503 249.625 215.135V217.193Z" fill="black"/>
<path d="M240.934 199.208C238.146 199.208 235.931 198.396 234.291 196.771C232.651 195.146 231.83 192.843 231.83 189.864C231.83 188.067 232.036 186.659 232.448 185.638C232.861 184.609 233.499 183.706 234.364 182.93C234.889 182.46 235.297 182.474 235.588 182.971L236.485 184.514C236.752 184.966 236.634 185.449 236.133 185.964C235.721 186.388 235.378 186.925 235.103 187.575C234.828 188.225 234.691 188.943 234.691 189.728C234.691 191.624 235.228 192.974 236.303 193.778C237.37 194.581 238.913 194.983 240.934 194.983C242.954 194.983 244.501 194.581 245.576 193.778C246.643 192.974 247.176 191.624 247.176 189.728C247.176 188.808 247.095 188.013 246.934 187.345C246.764 186.677 246.461 186.045 246.025 185.449H243.855V188.388C243.855 189.065 243.592 189.403 243.067 189.403H241.637C241.111 189.403 240.849 189.065 240.849 188.388V182.51C240.849 181.833 241.111 181.494 241.637 181.494H247.794C248.627 182.758 249.209 184.036 249.54 185.327C249.871 186.609 250.037 188.121 250.037 189.864C250.037 192.798 249.217 195.091 247.576 196.744C245.936 198.387 243.722 199.208 240.934 199.208Z" fill="black"/>
<path d="M230.691 109.42C230.125 109.42 229.842 109.081 229.842 108.404V91.0148C229.842 90.3377 230.125 89.9991 230.691 89.9991H232.655C233.139 89.9991 233.382 90.3377 233.382 91.0148V106.061H240.449C241.055 106.061 241.358 106.354 241.358 106.941V108.539C241.358 109.126 241.055 109.42 240.449 109.42H230.691Z" fill="black"/>
<path d="M243.031 99.7093C243.031 96.5945 243.75 94.1206 245.188 92.2878C246.627 90.4551 248.679 89.5387 251.346 89.5387C254.013 89.5387 256.065 90.4551 257.504 92.2878C258.942 94.1206 259.661 96.5945 259.661 99.7093C259.661 102.824 258.942 105.298 257.504 107.131C256.065 108.964 254.013 109.88 251.346 109.88C248.679 109.88 246.627 108.964 245.188 107.131C243.75 105.298 243.031 102.824 243.031 99.7093ZM246.813 99.7093C246.813 101.966 247.172 103.695 247.891 104.896C248.619 106.088 249.77 106.684 251.346 106.684C252.922 106.684 254.069 106.088 254.789 104.896C255.516 103.695 255.879 101.966 255.879 99.7093C255.879 97.4522 255.516 95.7277 254.789 94.536C254.069 93.3352 252.922 92.7348 251.346 92.7348C249.77 92.7348 248.619 93.3352 247.891 94.536C247.172 95.7277 246.813 97.4522 246.813 99.7093Z" fill="black"/>
<path d="M261.516 91.0825C261.338 90.3603 261.524 89.9991 262.074 89.9991H264.316C264.696 89.9991 264.95 90.2971 265.08 90.8929L267.383 101.538C267.553 102.314 267.662 102.847 267.71 103.136C267.767 103.416 267.815 103.871 267.856 104.503H267.916C267.957 103.871 267.997 103.393 268.037 103.068C268.078 102.743 268.195 102.206 268.389 101.456L271.092 91.0013C271.262 90.3332 271.601 89.9991 272.11 89.9991H274.341C274.85 89.9991 275.189 90.3332 275.359 91.0013L278.062 101.456C278.256 102.206 278.373 102.743 278.413 103.068C278.454 103.393 278.494 103.871 278.535 104.503H278.595C278.636 103.871 278.68 103.416 278.729 103.136C278.785 102.847 278.898 102.314 279.068 101.538L281.371 90.8929C281.5 90.2971 281.755 89.9991 282.135 89.9991H284.377C284.927 89.9991 285.113 90.3603 284.935 91.0825L280.813 108.106C280.603 108.982 280.224 109.42 279.674 109.42H277.553C277.084 109.42 276.741 108.986 276.522 108.119L273.613 96.7705C273.452 96.1566 273.359 95.7593 273.334 95.5788C273.31 95.3892 273.278 95.0416 273.238 94.536H273.213C273.173 95.0416 273.141 95.3892 273.116 95.5788C273.092 95.7593 272.999 96.1566 272.838 96.7705L269.928 108.119C269.71 108.986 269.367 109.42 268.898 109.42H266.777C266.227 109.42 265.847 108.982 265.637 108.106L261.516 91.0825Z" fill="black"/>
<path d="M150.919 123.572C150.418 123.147 150.297 122.719 150.555 122.285L151.489 120.714C151.796 120.2 152.244 120.173 152.834 120.633C153.287 120.985 153.877 121.351 154.604 121.73C155.339 122.1 156.111 122.285 156.919 122.285C157.485 122.285 158.03 122.213 158.556 122.069C159.081 121.924 159.481 121.644 159.756 121.229C160.03 120.814 160.168 120.321 160.168 119.753C160.168 119.346 160.107 118.99 159.986 118.683C159.865 118.376 159.667 118.123 159.392 117.924C159.117 117.726 158.834 117.559 158.543 117.423C158.034 117.189 157.392 116.958 156.616 116.733C155.848 116.498 155.089 116.218 154.337 115.893C153.666 115.604 153.052 115.207 152.495 114.701C151.937 114.196 151.505 113.627 151.198 112.995C150.891 112.363 150.737 111.519 150.737 110.462C150.737 109.207 151.101 108.133 151.828 107.239C152.555 106.345 153.392 105.772 154.337 105.519C155.283 105.266 156.236 105.14 157.198 105.14C158.151 105.14 159.133 105.302 160.143 105.628C161.162 105.953 161.929 106.359 162.447 106.846C162.956 107.325 163.081 107.758 162.822 108.146L161.84 109.623C161.509 110.128 161.065 110.169 160.507 109.745C160.152 109.474 159.663 109.171 159.04 108.837C158.426 108.503 157.784 108.336 157.113 108.336C156.636 108.336 156.196 108.381 155.792 108.472C155.396 108.562 155.044 108.778 154.737 109.122C154.43 109.465 154.277 109.889 154.277 110.395C154.277 110.882 154.39 111.279 154.616 111.586C154.842 111.884 155.093 112.11 155.368 112.264C155.642 112.408 155.921 112.53 156.204 112.629C157.077 112.945 157.857 113.225 158.543 113.469C159.23 113.704 159.865 113.965 160.446 114.254C161.255 114.661 161.873 115.067 162.301 115.473C162.729 115.879 163.081 116.435 163.356 117.139C163.638 117.843 163.78 118.683 163.78 119.658C163.78 121.102 163.368 122.299 162.544 123.247C161.719 124.186 160.802 124.791 159.792 125.061C158.79 125.341 157.812 125.481 156.859 125.481C155.452 125.481 154.309 125.328 153.428 125.021C152.547 124.723 151.711 124.24 150.919 123.572Z" fill="black"/>
<path d="M165.671 115.311C165.671 112.196 166.39 109.722 167.829 107.889C169.267 106.056 171.32 105.14 173.986 105.14C176.653 105.14 178.706 106.056 180.144 107.889C181.582 109.722 182.302 112.196 182.302 115.311C182.302 118.425 181.582 120.899 180.144 122.732C178.706 124.565 176.653 125.481 173.986 125.481C171.32 125.481 169.267 124.565 167.829 122.732C166.39 120.899 165.671 118.425 165.671 115.311ZM169.453 115.311C169.453 117.568 169.812 119.297 170.532 120.498C171.259 121.689 172.41 122.285 173.986 122.285C175.562 122.285 176.71 121.689 177.429 120.498C178.156 119.297 178.52 117.568 178.52 115.311C178.52 113.054 178.156 111.329 177.429 110.137C176.71 108.936 175.562 108.336 173.986 108.336C172.41 108.336 171.259 108.936 170.532 110.137C169.812 111.329 169.453 113.054 169.453 115.311Z" fill="black"/>
<path d="M186.132 125.021C185.566 125.021 185.284 124.682 185.284 124.005V106.616C185.284 105.939 185.566 105.6 186.132 105.6H189.647C190.116 105.6 190.451 105.962 190.653 106.684L193.938 118.561C194.084 119.076 194.185 119.5 194.241 119.834C194.298 120.159 194.346 120.547 194.387 120.999H194.46C194.5 120.547 194.548 120.159 194.605 119.834C194.662 119.5 194.763 119.076 194.908 118.561L198.193 106.684C198.395 105.962 198.73 105.6 199.199 105.6H202.714C203.28 105.6 203.563 105.939 203.563 106.616V124.005C203.563 124.682 203.28 125.021 202.714 125.021H200.872C200.306 125.021 200.023 124.682 200.023 124.005V112.819C200.023 112.277 200.044 111.735 200.084 111.194H199.999L196.496 123.924C196.294 124.655 195.946 125.021 195.454 125.021H193.393C192.9 125.021 192.552 124.655 192.35 123.924L188.847 111.194H188.762C188.803 111.735 188.823 112.277 188.823 112.819V124.005C188.823 124.682 188.54 125.021 187.975 125.021H186.132Z" fill="black"/>
<path d="M208.29 125.021C207.725 125.021 207.442 124.682 207.442 124.005V106.616C207.442 105.939 207.725 105.6 208.29 105.6H218.691C219.297 105.6 219.6 105.894 219.6 106.481V108.079C219.6 108.666 219.297 108.959 218.691 108.959H210.981V113.266H218.048C218.654 113.266 218.957 113.559 218.957 114.146V115.744C218.957 116.331 218.654 116.624 218.048 116.624H210.981V121.662H219.078C219.685 121.662 219.988 121.956 219.988 122.543V124.141C219.988 124.727 219.685 125.021 219.078 125.021H208.29Z" fill="black"/>
<path d="M123.442 88.6177C123.006 88.6177 122.864 88.3943 123.015 87.9474L127.47 74.8752C127.658 74.3267 127.943 74.0525 128.324 74.0525H129.597C129.979 74.0525 130.264 74.3267 130.452 74.8752L134.906 87.9474C135.058 88.3943 134.915 88.6177 134.479 88.6177H133.034C132.634 88.6177 132.355 88.3841 132.197 87.9169L131.27 85.1846H126.652L125.724 87.9169C125.567 88.3841 125.288 88.6177 124.888 88.6177H123.442ZM127.497 82.6657H130.424L129.306 79.4357C129.173 79.0565 129.091 78.7823 129.061 78.613C129.037 78.4369 129.009 78.1796 128.979 77.8411H128.943C128.912 78.1796 128.882 78.4369 128.852 78.613C128.827 78.7823 128.749 79.0565 128.615 79.4357L127.497 82.6657Z" fill="black"/>
<path d="M137.161 88.6177C136.737 88.6177 136.525 88.3638 136.525 87.856V74.8142C136.525 74.3064 136.737 74.0525 137.161 74.0525H144.352C144.807 74.0525 145.034 74.2725 145.034 74.7127V75.9112C145.034 76.3513 144.807 76.5714 144.352 76.5714H139.179V80.1061H143.607C144.061 80.1061 144.288 80.3262 144.288 80.7663V81.9648C144.288 82.405 144.061 82.625 143.607 82.625H139.179V87.856C139.179 88.3638 138.967 88.6177 138.543 88.6177H137.161Z" fill="black"/>
<path d="M146.752 76.6527C146.298 76.6527 146.07 76.4326 146.07 75.9925V74.7127C146.07 74.2725 146.298 74.0525 146.752 74.0525H156.098C156.552 74.0525 156.78 74.2725 156.78 74.7127V75.9925C156.78 76.4326 156.552 76.6527 156.098 76.6527H152.752V88.0591C152.752 88.4315 152.601 88.6177 152.298 88.6177H150.552C150.249 88.6177 150.098 88.4315 150.098 88.0591V76.6527H146.752Z" fill="black"/>
<path d="M159.18 88.6177C158.756 88.6177 158.543 88.3638 158.543 87.856V74.8142C158.543 74.3064 158.756 74.0525 159.18 74.0525H166.98C167.435 74.0525 167.662 74.2725 167.662 74.7127V75.9112C167.662 76.3513 167.435 76.5714 166.98 76.5714H161.198V79.8014H166.498C166.953 79.8014 167.18 80.0214 167.18 80.4616V81.6601C167.18 82.1003 166.953 82.3203 166.498 82.3203H161.198V86.0988H167.271C167.725 86.0988 167.953 86.3189 167.953 86.759V87.9575C167.953 88.3977 167.725 88.6177 167.271 88.6177H159.18Z" fill="black"/>
<path d="M170.816 88.6177C170.392 88.6177 170.18 88.3638 170.18 87.856V74.8142C170.18 74.3064 170.392 74.0525 170.816 74.0525H175.026C176.898 74.0525 178.265 74.3775 179.126 75.0275C179.986 75.6708 180.417 76.7204 180.417 78.1762C180.417 79.2597 180.068 80.123 179.371 80.7663C178.674 81.4096 177.789 81.8362 176.717 82.0461V82.0664C177.298 82.3102 177.738 82.6487 178.035 83.0821C178.332 83.5155 178.574 83.8947 178.762 84.2197L180.762 87.7442C181.096 88.3266 180.98 88.6177 180.417 88.6177H178.835C178.502 88.6177 178.229 88.418 178.017 88.0185L176.18 84.5955C175.98 84.2299 175.614 83.8304 175.08 83.397C174.553 82.9568 174.029 82.7368 173.507 82.7368H172.835V87.856C172.835 88.3638 172.623 88.6177 172.198 88.6177H170.816ZM172.835 80.2178H174.462C175.674 80.2178 176.535 80.0655 177.044 79.7607C177.559 79.4493 177.817 78.9583 177.817 78.288C177.817 77.5567 177.568 77.0827 177.071 76.866C176.58 76.6425 175.856 76.5308 174.898 76.5308H172.835V80.2178Z" fill="black"/>
<path d="M40.3159 177.652C40.3159 178.159 40.1189 178.413 39.7249 178.413H38.5794C38.1855 178.413 37.9885 178.159 37.9885 177.652V167.21C37.9885 166.702 38.1855 166.448 38.5794 166.448H39.7249C40.1189 166.448 40.3159 166.702 40.3159 167.21V170.948H50.5252C50.8586 170.948 51.0252 171.117 51.0252 171.456V173.406C51.0252 173.745 50.8586 173.914 50.5252 173.914H40.3159V177.652Z" fill="black"/>
<path d="M51.0252 163.767C51.0252 164.241 50.798 164.478 50.3434 164.478H38.6704C38.2158 164.478 37.9885 164.241 37.9885 163.767V162.223C37.9885 161.749 38.2158 161.512 38.6704 161.512H43.1159V156.047H38.6704C38.2158 156.047 37.9885 155.81 37.9885 155.336V153.793C37.9885 153.319 38.2158 153.082 38.6704 153.082H50.3434C50.798 153.082 51.0252 153.319 51.0252 153.793V155.336C51.0252 155.81 50.798 156.047 50.3434 156.047H45.3705V161.512H50.3434C50.798 161.512 51.0252 161.749 51.0252 162.223V163.767Z" fill="black"/>
<path d="M51.0252 150.288C51.0252 150.776 50.8252 150.935 50.4252 150.766L38.7249 145.789C38.234 145.579 37.9885 145.261 37.9885 144.834V143.412C37.9885 142.985 38.234 142.667 38.7249 142.457L50.4252 137.48C50.8252 137.311 51.0252 137.47 51.0252 137.958V139.573C51.0252 140.02 50.8162 140.331 50.398 140.507L47.9524 141.543V146.703L50.398 147.739C50.8162 147.915 51.0252 148.226 51.0252 148.673V150.288ZM45.6978 145.758V142.488L42.8068 143.737C42.4674 143.886 42.222 143.977 42.0705 144.011C41.9129 144.038 41.6826 144.069 41.3795 144.103V144.143C41.6826 144.177 41.9129 144.211 42.0705 144.245C42.222 144.272 42.4674 144.36 42.8068 144.509L45.6978 145.758Z" fill="black"/>
<path d="M51.0252 134.961C51.0252 135.435 50.798 135.672 50.3434 135.672H38.6704C38.2158 135.672 37.9885 135.435 37.9885 134.961V133.458C37.9885 132.876 38.2006 132.436 38.6249 132.138L46.0706 126.957V126.886C45.7069 126.92 45.3433 126.937 44.9796 126.937H38.6704C38.2158 126.937 37.9885 126.7 37.9885 126.226V124.682C37.9885 124.208 38.2158 123.971 38.6704 123.971H50.3434C50.798 123.971 51.0252 124.208 51.0252 124.682V126.084C51.0252 126.666 50.8131 127.106 50.3889 127.404L42.8068 132.686V132.757C43.1705 132.723 43.5341 132.706 43.8978 132.706H50.3434C50.798 132.706 51.0252 132.943 51.0252 133.417V134.961Z" fill="black"/>
<path d="M155.171 239.431C154.817 239.431 154.64 239.219 154.64 238.796V227.928C154.64 227.504 154.817 227.293 155.171 227.293H161.163C161.542 227.293 161.731 227.476 161.731 227.843V228.842C161.731 229.209 161.542 229.392 161.163 229.392H156.852V232.338H160.542C160.921 232.338 161.11 232.521 161.11 232.888V233.886C161.11 234.253 160.921 234.437 160.542 234.437H156.852V238.796C156.852 239.219 156.676 239.431 156.322 239.431H155.171Z" fill="black"/>
<path d="M162.989 233.362C162.989 231.415 163.438 229.869 164.338 228.723C165.237 227.578 166.519 227.005 168.186 227.005C169.853 227.005 171.136 227.578 172.035 228.723C172.934 229.869 173.383 231.415 173.383 233.362C173.383 235.308 172.934 236.855 172.035 238C171.136 239.146 169.853 239.718 168.186 239.718C166.519 239.718 165.237 239.146 164.338 238C163.438 236.855 162.989 235.308 162.989 233.362ZM165.353 233.362C165.353 234.772 165.577 235.853 166.027 236.603C166.482 237.348 167.201 237.721 168.186 237.721C169.171 237.721 169.888 237.348 170.338 236.603C170.792 235.853 171.02 234.772 171.02 233.362C171.02 231.951 170.792 230.873 170.338 230.128C169.888 229.378 169.171 229.003 168.186 229.003C167.201 229.003 166.482 229.378 166.027 230.128C165.577 230.873 165.353 231.951 165.353 233.362Z" fill="black"/>
<path d="M175.777 239.431C175.424 239.431 175.247 239.219 175.247 238.796V227.928C175.247 227.504 175.424 227.293 175.777 227.293H179.285C180.846 227.293 181.984 227.564 182.702 228.105C183.419 228.641 183.777 229.516 183.777 230.729C183.777 231.632 183.487 232.352 182.906 232.888C182.325 233.424 181.588 233.779 180.694 233.954V233.971C181.179 234.174 181.545 234.456 181.793 234.818C182.04 235.179 182.242 235.495 182.399 235.766L184.065 238.703C184.343 239.188 184.247 239.431 183.777 239.431H182.459C182.181 239.431 181.954 239.264 181.777 238.931L180.247 236.079C180.08 235.774 179.775 235.441 179.33 235.08C178.891 234.713 178.454 234.53 178.02 234.53H177.459V238.796C177.459 239.219 177.282 239.431 176.929 239.431H175.777ZM177.459 232.431H178.815C179.825 232.431 180.543 232.304 180.967 232.05C181.396 231.79 181.611 231.381 181.611 230.822C181.611 230.213 181.404 229.818 180.989 229.637C180.58 229.451 179.977 229.358 179.179 229.358H177.459V232.431Z" fill="black"/>
<path d="M186.596 239.431C186.242 239.431 186.065 239.219 186.065 238.796V227.928C186.065 227.504 186.242 227.293 186.596 227.293H193.096C193.475 227.293 193.664 227.476 193.664 227.843V228.842C193.664 229.209 193.475 229.392 193.096 229.392H188.278V232.084H192.694C193.073 232.084 193.263 232.267 193.263 232.634V233.633C193.263 233.999 193.073 234.183 192.694 234.183H188.278V237.331H193.338C193.717 237.331 193.907 237.515 193.907 237.882V238.88C193.907 239.247 193.717 239.431 193.338 239.431H186.596Z" fill="black"/>
<path d="M195.066 227.851C194.939 227.479 195.058 227.293 195.422 227.293H196.626C196.965 227.293 197.197 227.487 197.323 227.877L199.642 234.945C199.758 235.306 199.826 235.548 199.846 235.672C199.866 235.791 199.889 235.991 199.914 236.273H199.945C199.97 235.991 199.993 235.791 200.013 235.672C200.033 235.548 200.101 235.306 200.217 234.945L202.536 227.877C202.662 227.487 202.894 227.293 203.233 227.293H204.437C204.801 227.293 204.919 227.479 204.793 227.851L201.172 238.745C201.02 239.202 200.783 239.431 200.46 239.431H199.399C199.076 239.431 198.838 239.202 198.687 238.745L195.066 227.851Z" fill="black"/>
<path d="M206.672 239.431C206.318 239.431 206.142 239.219 206.142 238.796V227.928C206.142 227.504 206.318 227.293 206.672 227.293H213.172C213.551 227.293 213.74 227.476 213.74 227.843V228.842C213.74 229.209 213.551 229.392 213.172 229.392H208.354V232.084H212.771C213.149 232.084 213.339 232.267 213.339 232.634V233.633C213.339 233.999 213.149 234.183 212.771 234.183H208.354V237.331H213.415C213.793 237.331 213.983 237.515 213.983 237.882V238.88C213.983 239.247 213.793 239.431 213.415 239.431H206.672Z" fill="black"/>
<path d="M216.369 239.431C216.016 239.431 215.839 239.219 215.839 238.796V227.928C215.839 227.504 216.016 227.293 216.369 227.293H219.877C221.438 227.293 222.577 227.564 223.294 228.105C224.011 228.641 224.369 229.516 224.369 230.729C224.369 231.632 224.079 232.352 223.498 232.888C222.917 233.424 222.18 233.779 221.286 233.954V233.971C221.771 234.174 222.137 234.456 222.385 234.818C222.632 235.179 222.834 235.495 222.991 235.766L224.657 238.703C224.935 239.188 224.839 239.431 224.369 239.431H223.051C222.773 239.431 222.546 239.264 222.369 238.931L220.839 236.079C220.672 235.774 220.367 235.441 219.922 235.08C219.483 234.713 219.046 234.53 218.612 234.53H218.051V238.796C218.051 239.219 217.874 239.431 217.521 239.431H216.369ZM218.051 232.431H219.407C220.417 232.431 221.135 232.304 221.559 232.05C221.988 231.79 222.203 231.381 222.203 230.822C222.203 230.213 221.996 229.818 221.582 229.637C221.172 229.451 220.569 229.358 219.771 229.358H218.051V232.431Z" fill="black"/>
<path d="M15.5303 114.62C15.1768 114.62 15 114.408 15 113.985V103.117C15 102.694 15.1768 102.482 15.5303 102.482H16.7576C17.0607 102.482 17.2122 102.694 17.2122 103.117V112.521H21.629C22.0078 112.521 22.1972 112.704 22.1972 113.071V114.07C22.1972 114.437 22.0078 114.62 21.629 114.62H15.5303Z" fill="black"/>
<path d="M24.3336 114.62C23.98 114.62 23.8033 114.408 23.8033 113.985V103.117C23.8033 102.694 23.98 102.482 24.3336 102.482H30.8338C31.2126 102.482 31.402 102.666 31.402 103.032V104.031C31.402 104.398 31.2126 104.581 30.8338 104.581H26.0155V107.273H30.4322C30.811 107.273 31.0004 107.456 31.0004 107.823V108.822C31.0004 109.189 30.811 109.372 30.4322 109.372H26.0155V112.521H31.0762C31.455 112.521 31.6444 112.704 31.6444 113.071V114.07C31.6444 114.437 31.455 114.62 31.0762 114.62H24.3336Z" fill="black"/>
<path d="M32.9399 108.551C32.9399 106.604 33.3945 105.058 34.3036 103.913C35.2127 102.767 36.5006 102.194 38.1673 102.194C39.1724 102.194 39.9603 102.338 40.531 102.626C41.1068 102.914 41.6119 103.36 42.0462 103.963C42.3088 104.33 42.3013 104.615 42.0235 104.818L41.1598 105.445C40.9073 105.631 40.6371 105.549 40.3492 105.199C40.1118 104.911 39.8113 104.672 39.4477 104.48C39.084 104.288 38.6825 104.192 38.2431 104.192C37.1824 104.192 36.4274 104.567 35.9779 105.318C35.5284 106.063 35.3036 107.14 35.3036 108.551C35.3036 109.962 35.5284 111.042 35.9779 111.793C36.4274 112.538 37.1824 112.91 38.2431 112.91C38.7582 112.91 39.2027 112.854 39.5764 112.741C39.9502 112.622 40.3037 112.411 40.6371 112.106V110.591H38.9931C38.6143 110.591 38.4249 110.408 38.4249 110.041V109.042C38.4249 108.675 38.6143 108.492 38.9931 108.492H42.2811C42.6599 108.492 42.8493 108.675 42.8493 109.042V113.342C42.1422 113.923 41.4275 114.329 40.7053 114.561C39.9881 114.792 39.1421 114.908 38.1673 114.908C36.5259 114.908 35.243 114.335 34.3187 113.189C33.3995 112.044 32.9399 110.498 32.9399 108.551Z" fill="black"/>
<path d="M45.4402 114.62C45.0867 114.62 44.9099 114.408 44.9099 113.985V103.117C44.9099 102.694 45.0867 102.482 45.4402 102.482H46.5918C46.9453 102.482 47.1221 102.694 47.1221 103.117V113.985C47.1221 114.408 46.9453 114.62 46.5918 114.62H45.4402Z" fill="black"/>
<path d="M49.16 104.649C48.7812 104.649 48.5918 104.466 48.5918 104.099V103.032C48.5918 102.666 48.7812 102.482 49.16 102.482H56.9481C57.3269 102.482 57.5163 102.666 57.5163 103.032V104.099C57.5163 104.466 57.3269 104.649 56.9481 104.649H54.1602V114.154C54.1602 114.465 54.0339 114.62 53.7814 114.62H52.3268C52.0743 114.62 51.948 114.465 51.948 114.154V104.649H49.16Z" fill="black"/>
<path d="M64.9893 25.4524C64.9893 25.0461 65.1559 24.9135 65.4893 25.0545L75.2396 29.202C75.6487 29.377 75.8532 29.6422 75.8532 29.9977V31.1827C75.8532 31.5382 75.6487 31.8034 75.2396 31.9783L65.4893 36.1258C65.1559 36.2669 64.9893 36.1343 64.9893 35.728V34.3822C64.9893 34.0097 65.1635 33.7502 65.512 33.6034L67.55 32.7401V28.4402L65.512 27.5769C65.1635 27.4302 64.9893 27.1706 64.9893 26.7982V25.4524ZM69.4288 29.2274V31.9529L71.838 30.9118C72.1208 30.7877 72.3253 30.7115 72.4516 30.6833C72.5829 30.6607 72.7748 30.6353 73.0274 30.6071V30.5732C72.7748 30.545 72.5829 30.5168 72.4516 30.4886C72.3253 30.466 72.1208 30.3927 71.838 30.2685L69.4288 29.2274Z" fill="black"/>
<path d="M64.9893 38.3096C64.9893 37.8581 65.1787 37.6324 65.5575 37.6324H75.285C75.6638 37.6324 75.8532 37.8581 75.8532 38.3096V41.1874C75.8532 43.3543 75.6133 44.8158 75.1335 45.5719C74.6587 46.3337 73.9264 46.7146 72.9365 46.7146C72.2445 46.7146 71.7092 46.4296 71.3304 45.8597C70.9516 45.2954 70.7319 44.7481 70.6713 44.2176H70.6485C70.6182 44.7311 70.3859 45.3349 69.9515 46.029C69.5172 46.723 68.9035 47.0701 68.1106 47.0701C67.1813 47.0701 66.4287 46.6469 65.8529 45.8004C65.2772 44.954 64.9893 43.5574 64.9893 41.6106V38.3096ZM66.8378 40.104V41.3398C66.8378 42.5361 66.9312 43.3486 67.1181 43.7775C67.305 44.212 67.6838 44.4292 68.2545 44.4292C68.7899 44.4292 69.1586 44.1781 69.3606 43.6759C69.5677 43.1793 69.6712 42.4006 69.6712 41.3398V40.104H66.8378ZM71.4592 40.104V41.2128C71.4592 41.9407 71.5728 42.6207 71.8001 43.2527C72.0274 43.8903 72.3809 44.2092 72.8607 44.2092C73.2345 44.2092 73.5173 44.0314 73.7092 43.6759C73.9062 43.3261 74.0047 42.505 74.0047 41.2128V40.104H71.4592Z" fill="black"/>
<path d="M65.7999 49.457C66.0373 49.1071 66.2772 49.0225 66.5196 49.2031L67.3984 49.8548C67.6863 50.0692 67.7015 50.3824 67.4439 50.7944C67.2469 51.1104 67.0424 51.5223 66.8302 52.0301C66.6232 52.5436 66.5196 53.0825 66.5196 53.6468C66.5196 54.0418 66.56 54.4227 66.6408 54.7895C66.7216 55.1563 66.8782 55.4356 67.1105 55.6274C67.3429 55.8193 67.6181 55.9152 67.9363 55.9152C68.1636 55.9152 68.3631 55.8729 68.5348 55.7883C68.7066 55.7036 68.848 55.5654 68.9591 55.3735C69.0702 55.1817 69.1636 54.9842 69.2394 54.781C69.3707 54.4255 69.4995 53.9769 69.6258 53.4352C69.7571 52.8991 69.9137 52.3687 70.0955 51.8439C70.2571 51.3756 70.4793 50.9467 70.7622 50.5574C71.045 50.168 71.3632 49.8661 71.7167 49.6517C72.0703 49.4373 72.5425 49.33 73.1334 49.33C73.8355 49.33 74.4365 49.584 74.9365 50.0918C75.4365 50.5997 75.7573 51.1837 75.8987 51.8439C76.0401 52.5041 76.1108 53.17 76.1108 53.8415C76.1108 54.5073 76.0199 55.1929 75.8381 55.8983C75.6562 56.6093 75.429 57.1454 75.1562 57.5065C74.8885 57.862 74.6461 57.9495 74.4289 57.7689L73.6032 57.0833C73.3203 56.8519 73.2976 56.5416 73.535 56.1522C73.6865 55.9039 73.8557 55.5626 74.0426 55.1281C74.2294 54.6992 74.3229 54.2506 74.3229 53.7822C74.3229 53.4493 74.2976 53.1418 74.2471 52.8596C74.1966 52.5831 74.0754 52.3377 73.8835 52.1232C73.6915 51.9088 73.4542 51.8016 73.1713 51.8016C72.8986 51.8016 72.6764 51.8806 72.5046 52.0386C72.338 52.1966 72.2117 52.3715 72.1258 52.5634C72.045 52.7552 71.9768 52.9499 71.9213 53.1474C71.7445 53.7568 71.5879 54.3014 71.4516 54.781C71.3203 55.2607 71.1738 55.7036 71.0122 56.1099C70.7849 56.6742 70.5576 57.1059 70.3303 57.4049C70.1031 57.704 69.7924 57.9495 69.3985 58.1413C69.0045 58.3388 68.5348 58.4376 67.9894 58.4376C67.1813 58.4376 66.512 58.1498 65.9817 57.5742C65.4565 56.9987 65.1181 56.3582 64.9665 55.6528C64.81 54.9531 64.7317 54.2703 64.7317 53.6045C64.7317 52.6226 64.8176 51.8242 64.9893 51.2091C65.1559 50.594 65.4262 50.01 65.7999 49.457Z" fill="black"/>
<path d="M70.4212 59.758C72.1637 59.758 73.5476 60.2602 74.5729 61.2646C75.5982 62.2691 76.1108 63.7024 76.1108 65.5645C76.1108 67.4266 75.5982 68.8599 74.5729 69.8643C73.5476 70.8688 72.1637 71.371 70.4212 71.371C68.6788 71.371 67.2949 70.8688 66.2696 69.8643C65.2443 68.8599 64.7317 67.4266 64.7317 65.5645C64.7317 63.7024 65.2443 62.2691 66.2696 61.2646C67.2949 60.2602 68.6788 59.758 70.4212 59.758ZM70.4212 62.3989C69.1586 62.3989 68.1914 62.65 67.5196 63.1522C66.853 63.66 66.5196 64.4641 66.5196 65.5645C66.5196 66.6648 66.853 67.4661 67.5196 67.9683C68.1914 68.4762 69.1586 68.7301 70.4212 68.7301C71.6839 68.7301 72.6486 68.4762 73.3153 67.9683C73.987 67.4661 74.3229 66.6648 74.3229 65.5645C74.3229 64.4641 73.987 63.66 73.3153 63.1522C72.6486 62.65 71.6839 62.3989 70.4212 62.3989Z" fill="black"/>
<path d="M64.9893 74.0457C64.9893 73.6507 65.1787 73.4532 65.5575 73.4532H75.285C75.6638 73.4532 75.8532 73.6507 75.8532 74.0457V75.4169C75.8532 75.7555 75.6638 75.9247 75.285 75.9247H66.8681V80.8594C66.8681 81.2826 66.704 81.4942 66.3757 81.4942H65.4817C65.1534 81.4942 64.9893 81.2826 64.9893 80.8594V74.0457Z" fill="black"/>
<path d="M69.5121 83.2886H75.4365C75.7143 83.2886 75.8532 83.4861 75.8532 83.8811V85.1677C75.8532 85.5627 75.7143 85.7602 75.4365 85.7602H69.5879C68.2242 85.7602 67.3707 85.9831 67.0272 86.4289C66.6888 86.8803 66.5196 87.3882 66.5196 87.9525C66.5196 88.5167 66.6888 89.0218 67.0272 89.4676C67.3707 89.919 68.2242 90.1447 69.5879 90.1447H75.4365C75.7143 90.1447 75.8532 90.3422 75.8532 90.7372V92.0238C75.8532 92.4188 75.7143 92.6163 75.4365 92.6163H69.5121C67.7444 92.6163 66.5045 92.1987 65.7923 91.3636C65.0852 90.5284 64.7317 89.3914 64.7317 87.9525C64.7317 86.5135 65.0852 85.3765 65.7923 84.5414C66.5045 83.7062 67.7444 83.2886 69.5121 83.2886Z" fill="black"/>
<path d="M73.9138 94.8931C73.9138 94.4699 74.0779 94.2583 74.4062 94.2583H75.3608C75.6891 94.2583 75.8532 94.4699 75.8532 94.8931V103.594C75.8532 104.018 75.6891 104.229 75.3608 104.229H74.4062C74.0779 104.229 73.9138 104.018 73.9138 103.594V100.48H65.406C65.1282 100.48 64.9893 100.338 64.9893 100.056V98.4312C64.9893 98.1491 65.1282 98.008 65.406 98.008H73.9138V94.8931Z" fill="black"/>
<path d="M64.9893 106.464C64.9893 106.069 65.1787 105.871 65.5575 105.871H75.285C75.6638 105.871 75.8532 106.069 75.8532 106.464V113.726C75.8532 114.149 75.6891 114.361 75.3608 114.361H74.4668C74.1385 114.361 73.9744 114.149 73.9744 113.726V108.343H71.5652V113.278C71.5652 113.701 71.4011 113.912 71.0728 113.912H70.1788C69.8505 113.912 69.6864 113.701 69.6864 113.278V108.343H66.8681V113.997C66.8681 114.42 66.704 114.632 66.3757 114.632H65.4817C65.1534 114.632 64.9893 114.42 64.9893 113.997V106.464Z" fill="black"/>
<path d="M105.33 270.42C105.33 270.815 105.14 271.012 104.762 271.012H95.0341C94.6553 271.012 94.4659 270.815 94.4659 270.42V267.965C94.4659 267.638 94.6679 267.404 95.0719 267.263L101.716 264.969C102.004 264.867 102.241 264.797 102.428 264.757C102.61 264.718 102.827 264.684 103.08 264.656V264.605C102.827 264.577 102.61 264.543 102.428 264.503C102.241 264.464 102.004 264.393 101.716 264.292L95.0719 261.998C94.6679 261.857 94.4659 261.623 94.4659 261.295V258.841C94.4659 258.446 94.6553 258.248 95.0341 258.248H104.762C105.14 258.248 105.33 258.446 105.33 258.841V260.127C105.33 260.522 105.14 260.72 104.762 260.72H98.5038C98.2008 260.72 97.8978 260.706 97.5947 260.678V260.737L104.716 263.183C105.125 263.324 105.33 263.567 105.33 263.911V265.35C105.33 265.694 105.125 265.937 104.716 266.078L97.5947 268.524V268.583C97.8978 268.555 98.2008 268.541 98.5038 268.541H104.762C105.14 268.541 105.33 268.738 105.33 269.133V270.42Z" fill="black"/>
<path d="M99.8978 256.166C98.1554 256.166 96.7715 255.664 95.7462 254.659C94.7209 253.655 94.2083 252.222 94.2083 250.36C94.2083 248.497 94.7209 247.064 95.7462 246.06C96.7715 245.055 98.1554 244.553 99.8978 244.553C101.64 244.553 103.024 245.055 104.049 246.06C105.075 247.064 105.587 248.497 105.587 250.36C105.587 252.222 105.075 253.655 104.049 254.659C103.024 255.664 101.64 256.166 99.8978 256.166ZM99.8978 253.525C101.16 253.525 102.128 253.274 102.799 252.772C103.466 252.264 103.799 251.46 103.799 250.36C103.799 249.259 103.466 248.458 102.799 247.956C102.128 247.448 101.16 247.194 99.8978 247.194C98.6352 247.194 97.6705 247.448 97.0038 247.956C96.3321 248.458 95.9962 249.259 95.9962 250.36C95.9962 251.46 96.3321 252.264 97.0038 252.772C97.6705 253.274 98.6352 253.525 99.8978 253.525Z" fill="black"/>
<path d="M104.519 242.327C104.282 242.677 104.042 242.762 103.799 242.581L102.921 241.929C102.633 241.715 102.618 241.402 102.875 240.99C103.072 240.674 103.277 240.262 103.489 239.754C103.696 239.24 103.799 238.702 103.799 238.137C103.799 237.742 103.759 237.361 103.678 236.995C103.597 236.628 103.441 236.348 103.209 236.157C102.976 235.965 102.701 235.869 102.383 235.869C102.155 235.869 101.956 235.911 101.784 235.996C101.613 236.08 101.471 236.219 101.36 236.411C101.249 236.602 101.155 236.8 101.08 237.003C100.948 237.359 100.82 237.807 100.693 238.349C100.562 238.885 100.405 239.415 100.224 239.94C100.062 240.408 99.8397 240.837 99.5569 241.227C99.2741 241.616 98.9559 241.918 98.6023 242.132C98.2488 242.347 97.7766 242.454 97.1856 242.454C96.4836 242.454 95.8826 242.2 95.3825 241.692C94.8825 241.184 94.5618 240.6 94.4204 239.94C94.279 239.28 94.2083 238.614 94.2083 237.943C94.2083 237.277 94.2992 236.591 94.481 235.886C94.6628 235.175 94.8901 234.639 95.1628 234.278C95.4305 233.922 95.673 233.835 95.8901 234.015L96.7159 234.701C96.9988 234.932 97.0215 235.242 96.7841 235.632C96.6326 235.88 96.4634 236.221 96.2765 236.656C96.0896 237.085 95.9962 237.533 95.9962 238.002C95.9962 238.335 96.0215 238.642 96.072 238.924C96.1225 239.201 96.2437 239.446 96.4356 239.661C96.6275 239.875 96.8649 239.982 97.1477 239.982C97.4205 239.982 97.6427 239.903 97.8144 239.745C97.9811 239.587 98.1074 239.413 98.1932 239.221C98.274 239.029 98.3422 238.834 98.3978 238.637C98.5746 238.027 98.7311 237.483 98.8675 237.003C98.9988 236.523 99.1453 236.08 99.3069 235.674C99.5342 235.11 99.7615 234.678 99.9887 234.379C100.216 234.08 100.527 233.835 100.921 233.643C101.315 233.445 101.784 233.346 102.33 233.346C103.138 233.346 103.807 233.634 104.337 234.21C104.863 234.785 105.201 235.426 105.353 236.131C105.509 236.831 105.587 237.514 105.587 238.18C105.587 239.161 105.502 239.96 105.33 240.575C105.163 241.19 104.893 241.774 104.519 242.327Z" fill="black"/>
<path d="M96.4053 231.831C96.4053 232.255 96.2412 232.466 95.9129 232.466H94.9583C94.63 232.466 94.4659 232.255 94.4659 231.831V223.13C94.4659 222.707 94.63 222.495 94.9583 222.495H95.9129C96.2412 222.495 96.4053 222.707 96.4053 223.13V226.245H104.913C105.191 226.245 105.33 226.386 105.33 226.668V228.293C105.33 228.575 105.191 228.717 104.913 228.717H96.4053V231.831Z" fill="black"/>
</svg>
